<?xml version="1.0" encoding="UTF-8" standalone="no"?>
<svg
   xmlns:dc="http://purl.org/dc/elements/1.1/"
   xmlns:cc="http://creativecommons.org/ns#"
   xmlns:rdf="http://www.w3.org/1999/02/22-rdf-syntax-ns#"
   xmlns:svg="http://www.w3.org/2000/svg"
   xmlns="http://www.w3.org/2000/svg"
   xmlns:sodipodi="http://sodipodi.sourceforge.net/DTD/sodipodi-0.dtd"
   xmlns:inkscape="http://www.inkscape.org/namespaces/inkscape"
   width="89.19249mm"
   height="102.99061mm"
   viewBox="0 0 89.19249 102.99061"
   version="1.1"
   id="svg8"
   inkscape:version="1.0.1 (3bc2e813f5, 2020-09-07)"
   sodipodi:docname="logo.svg">
  <defs
     id="defs2">
    <rect
       x="87.752213"
       y="79.015213"
       width="51.110783"
       height="67.979103"
       id="rect841" />
  </defs>
  <sodipodi:namedview
     id="base"
     pagecolor="#ffffff"
     bordercolor="#666666"
     borderopacity="1.0"
     inkscape:pageopacity="0.0"
     inkscape:pageshadow="2"
     inkscape:zoom="1.4"
     inkscape:cx="268.30273"
     inkscape:cy="457.97559"
     inkscape:document-units="mm"
     inkscape:current-layer="layer1"
     inkscape:document-rotation="0"
     showgrid="false"
     fit-margin-top="0"
     fit-margin-left="0"
     fit-margin-right="0"
     fit-margin-bottom="0"
     inkscape:window-width="3838"
     inkscape:window-height="2158"
     inkscape:window-x="0"
     inkscape:window-y="0"
     inkscape:window-maximized="1" />
  <metadata
     id="metadata5">
    <rdf:RDF>
      <cc:Work
         rdf:about="">
        <dc:format>image/svg+xml</dc:format>
        <dc:type
           rdf:resource="http://purl.org/dc/dcmitype/StillImage" />
        <dc:title></dc:title>
      </cc:Work>
    </rdf:RDF>
  </metadata>
  <g
     inkscape:label="Layer 1"
     inkscape:groupmode="layer"
     id="layer1">
    <path
       id="path837"
       style="fill:#000000;stroke:none;stroke-width:0.162881;stroke-linecap:round;stroke-linejoin:round;paint-order:stroke fill markers"
       d="M 44.596241,0 0,25.747784 V 77.242832 L 44.596241,102.99061 89.192491,77.242832 V 25.747784 Z M 33.487362,43.980261 c 0.586994,0 1.337956,0.123253 2.252575,0.368969 -0.09555,0.696203 -0.334518,1.54936 -0.716753,2.559534 l -0.593762,0.04083 c 0,-0.573344 -0.136256,-1.064797 -0.409276,-1.474329 -0.273021,-0.409531 -0.675804,-0.614432 -1.208196,-0.614432 -0.518737,0 -0.908,0.300591 -1.167371,0.901237 -0.259369,0.586994 -0.389123,1.269312 -0.389123,2.04742 v 2.436552 l 2.437061,-0.16382 -0.184486,1.08572 -2.252575,-0.0615 v 6.20427 c 0,0.17746 0.02053,0.30019 0.0615,0.36845 0.04095,0.0683 0.123121,0.1364 0.24598,0.20464 0.232066,0.12286 0.641355,0.22557 1.228349,0.30748 l 0.286803,0.0408 -0.163814,0.61443 c -1.160335,-0.10921 -1.945365,-0.16381 -2.354895,-0.16381 -0.39588,0 -1.153345,0.0546 -2.272728,0.16381 l -0.163814,-0.61443 c 0.532389,-0.0819 0.89409,-0.17057 1.085204,-0.26613 0.204767,-0.10922 0.320482,-0.19789 0.347782,-0.26614 0.04095,-0.0683 0.06149,-0.191 0.06149,-0.36845 v -6.26578 l -1.289843,-0.0207 -0.06149,-0.57361 1.351338,-0.30695 v -1.187523 c 0,-1.378755 0.334658,-2.553044 1.003557,-3.522266 0.682551,-0.982874 1.6379,-1.47433 2.866493,-1.47433 z m 5.160407,5.856491 c 1.010176,0 1.747102,0.24546 2.211237,0.73691 0.464132,0.47778 0.696079,1.22875 0.696079,2.25257 v 4.17701 c 0,0.49144 0.266528,0.73742 0.79892,0.73742 l 0.552936,-0.0207 0.16381,0.59376 c -0.668897,0.15016 -1.378774,0.38262 -2.129582,0.6966 -0.505087,-0.34128 -0.826219,-0.79867 -0.962731,-1.37201 -0.614294,0.51874 -1.119272,0.87342 -1.515153,1.06453 -0.382227,0.20477 -0.764471,0.30748 -1.146701,0.30748 -0.696201,0 -1.255787,-0.21843 -1.678966,-0.65526 -0.40953,-0.43683 -0.614434,-1.02398 -0.614434,-1.76113 0,-0.75081 0.266012,-1.30389 0.798401,-1.65882 0.532392,-0.36858 1.269831,-0.60052 2.211753,-0.69608 l 1.883605,-0.20464 v -0.92139 c 0,-0.7781 -0.115715,-1.36525 -0.347781,-1.76113 -0.232069,-0.39588 -0.655397,-0.59376 -1.269691,-0.59376 -0.600646,0 -1.051017,0.0816 -1.35134,0.24546 -0.08191,0.28667 -0.122989,0.9149 -0.122989,1.88412 l -0.859896,0.24547 c -0.300321,-0.99652 -0.47116,-1.76101 -0.512114,-2.2934 1.474311,-0.6689 2.539388,-1.00304 3.194637,-1.00304 z m 8.108552,0 0.32763,0.36845 c 0,0.43683 0.0611,0.96235 0.18396,1.57665 l 0.67593,-0.8599 c 0.587,-0.7235 1.20119,-1.0852 1.84278,-1.0852 0.27302,0 0.75797,0.12976 1.45418,0.38912 -0.19111,1.07844 -0.42357,1.95863 -0.6966,2.64118 l -0.55242,0.0413 c 0,-0.49144 -0.0752,-0.89422 -0.22531,-1.2082 -0.13651,-0.31397 -0.34844,-0.47077 -0.6351,-0.47077 v -5.3e-4 c -0.51874,0 -1.13944,0.512 -1.86294,1.53582 v 4.54598 c 0,0.17747 0.027,0.30722 0.0816,0.38912 0.0546,0.0683 0.1568,0.12937 0.30696,0.18397 0.23207,0.0956 0.65539,0.1707 1.26969,0.22531 l 0.30747,0.0413 -0.14366,0.69608 c -1.22859,-0.10921 -2.10879,-0.16381 -2.64118,-0.16381 -0.53239,0 -1.24929,0.0546 -2.15026,0.16381 l -0.16381,-0.61443 c 0.53239,-0.0819 0.89408,-0.17057 1.0852,-0.26613 0.20477,-0.10921 0.321,-0.19789 0.3483,-0.26614 0.0409,-0.0683 0.0615,-0.19099 0.0615,-0.36845 v -5.52886 c 0,-0.40954 -0.11623,-0.63498 -0.3483,-0.67593 -0.23207,-0.0273 -0.53267,-0.007 -0.90124,0.0615 l -0.22479,0.0408 -0.10284,-0.61392 c 0.95557,-0.42318 1.85683,-0.68269 2.7032,-0.77824 z m 4.89376,0.18448 c 0.60064,0.0956 1.31755,0.14315 2.15025,0.14315 0.83273,0 1.53559,-0.0476 2.10892,-0.14315 l -0.0408,0.61392 c -0.30033,0.0409 -0.53226,0.089 -0.69608,0.14366 -0.15015,0.0409 -0.25287,0.12258 -0.30747,0.24546 -0.041,0.12286 -0.007,0.25964 0.10232,0.4098 l 1.61799,2.04742 1.61747,-2.02727 c 0.0956,-0.13651 0.10907,-0.26626 0.0408,-0.38912 -0.0682,-0.13651 -0.18394,-0.22518 -0.34778,-0.26613 l -0.71675,-0.14315 -0.0413,-0.61443 c 0.50508,0.0819 1.09924,0.12299 1.7818,0.12299 0.6962,0 1.28985,-0.0411 1.78129,-0.12299 l -0.0615,0.61443 c -0.13652,0 -0.23871,0.0135 -0.30696,0.0408 -0.0545,0.0273 -0.10262,0.0479 -0.14366,0.0615 -0.0273,0.0137 -0.0679,0.0412 -0.12247,0.0822 -0.0546,0.0273 -0.0957,0.0474 -0.12299,0.061 -0.0136,0.0137 -0.0478,0.0548 -0.10232,0.12299 -0.10925,0.0956 -0.20494,0.19125 -0.2868,0.28681 -0.0819,0.0819 -0.13647,0.13651 -0.16382,0.16381 l -2.27273,2.66185 2.66185,3.31712 c 0.42318,0.49143 0.85302,0.75094 1.28985,0.77824 l -0.14315,0.61443 c -0.68254,-0.10921 -1.3789,-0.16381 -2.08876,-0.16381 -0.6962,0 -1.38553,0.0546 -2.06809,0.16381 l -0.14366,-0.61443 c 0.43683,-0.0819 0.73743,-0.15004 0.90124,-0.20464 0.16381,-0.0546 0.27302,-0.14326 0.32763,-0.26613 0.0545,-0.13651 0.0274,-0.29382 -0.0816,-0.47129 l -1.80196,-2.25206 -1.86345,2.25206 c -0.12293,0.17747 -0.16401,0.33478 -0.12299,0.47129 0.041,0.13651 0.12966,0.22518 0.26613,0.26613 l 0.96274,0.20464 -0.14366,0.61443 c -0.70986,-0.10921 -1.33055,-0.16381 -1.86294,-0.16381 -0.51874,0 -1.10588,0.0546 -1.76113,0.16381 l -0.14366,-0.61443 c 0.45048,-0.0273 0.95597,-0.31389 1.51567,-0.85989 l 2.62102,-2.98948 -2.41638,-3.03083 c -0.21842,-0.27302 -0.41629,-0.45036 -0.59377,-0.53227 -0.17746,-0.0956 -0.4094,-0.15717 -0.69608,-0.18448 z m -11.733138,4.60696 -1.576649,0.2868 c -1.078429,0.17746 -1.617472,0.66892 -1.617472,1.47433 0,0.38223 0.122735,0.70987 0.368453,0.98289 0.245719,0.27302 0.600917,0.40927 1.065051,0.40927 0.464138,0 1.050764,-0.27303 1.760617,-0.81907 z" />
  </g>
</svg>
