<?xml version="1.0" encoding="UTF-8" standalone="no"?>
<svg
   width="230.94009"
   height="230.94009"
   viewBox="0 0 102.99061 102.99061"
   version="1.1"
   id="svg881"
   sodipodi:docname="logo.svg.2022_03_28_00_22_01.0.svg"
   inkscape:export-filename="/Users/max/farx-trez5.png"
   inkscape:export-xdpi="59.85968"
   inkscape:export-ydpi="59.85968"
   inkscape:version="1.1.2 (b8e25be8, 2022-02-05)"
   xmlns:inkscape="http://www.inkscape.org/namespaces/inkscape"
   xmlns:sodipodi="http://sodipodi.sourceforge.net/DTD/sodipodi-0.dtd"
   xmlns="http://www.w3.org/2000/svg"
   xmlns:svg="http://www.w3.org/2000/svg"
   xmlns:rdf="http://www.w3.org/1999/02/22-rdf-syntax-ns#"
   xmlns:cc="http://creativecommons.org/ns#"
   xmlns:dc="http://purl.org/dc/elements/1.1/">
  <metadata
     id="metadata887">
    <rdf:RDF>
      <cc:Work
         rdf:about="">
        <dc:format>image/svg+xml</dc:format>
        <dc:type
           rdf:resource="http://purl.org/dc/dcmitype/StillImage" />
        <dc:title />
      </cc:Work>
    </rdf:RDF>
  </metadata>
  <defs
     id="defs885" />
  <sodipodi:namedview
     pagecolor="#ffffff"
     bordercolor="#666666"
     borderopacity="1"
     objecttolerance="10"
     gridtolerance="10"
     guidetolerance="10"
     inkscape:pageopacity="0"
     inkscape:pageshadow="2"
     inkscape:window-width="1306"
     inkscape:window-height="796"
     id="namedview883"
     showgrid="false"
     inkscape:zoom="0.56280685"
     inkscape:cx="-187.4533"
     inkscape:cy="199.00255"
     inkscape:window-x="134"
     inkscape:window-y="76"
     inkscape:window-maximized="0"
     inkscape:current-layer="svg881"
     inkscape:pagecheckerboard="0" />
  <path
     id="path17"
     style="fill:#1a1a1a;stroke-width:0.877886"
     d="m 51.494871,6.288475 -39.149757,22.60385 v 45.20683 l 39.149757,22.60298 39.150625,-22.60298 v -45.20683 z m -16.227982,34.19278 c 0.857136,0 1.953432,0.18037 3.288973,0.53916 -0.139528,1.01661 -0.488819,2.26162 -1.046968,3.73668 l -0.867535,0.0592 c 0,-0.8372 -0.198855,-1.55342 -0.597518,-2.15142 -0.398673,-0.59801 -0.987281,-0.89803 -1.764687,-0.89803 -0.757467,0 -1.324981,0.43904 -1.703719,1.31612 -0.37873,0.85713 -0.568776,1.85401 -0.568776,2.99021 v 3.55725 l 3.55899,-0.23866 -0.270017,1.58438 -3.288973,-0.0888 v 9.05948 c 0,0.25913 0.03075,0.43859 0.09059,0.53829 0.0598,0.0997 0.17946,0.19916 0.358861,0.29876 0.338865,0.1794 0.935416,0.32984 1.79256,0.44945 l 0.419829,0.0592 -0.238657,0.89715 c -1.694336,-0.15951 -2.841655,-0.23953 -3.439659,-0.23953 -0.578075,0 -1.683179,0.0801 -3.317719,0.23953 l -0.23953,-0.89715 c 0.7774,-0.11959 1.30619,-0.24981 1.58525,-0.38935 0.29901,-0.15948 0.46709,-0.28877 0.50694,-0.38847 0.0598,-0.0997 0.0888,-0.27917 0.0888,-0.53829 v -9.14833 l -1.88227,-0.0314 -0.0897,-0.83618 1.97199,-0.44945 v -1.73332 c 0,-2.01328 0.490069,-3.72811 1.466803,-5.14338 0.996677,-1.4352 2.392111,-2.15316 4.186124,-2.15316 z m 7.534327,8.55168 c 1.475074,0 2.551135,0.35808 3.228873,1.07571 0.677736,0.69766 1.016481,1.79484 1.016481,3.28984 v 6.09976 c 0,0.7176 0.388887,1.07571 1.166296,1.07571 l 0.807436,-0.0288 0.239531,0.8658 c -0.976735,0.21927 -2.013202,0.55887 -3.109543,1.01735 -0.737537,-0.49834 -1.206489,-1.16616 -1.405827,-2.00335 -0.896996,0.75747 -1.635192,1.27571 -2.213263,1.55477 -0.558138,0.29901 -1.115092,0.44858 -1.67323,0.44858 -1.016601,0 -1.834864,-0.31852 -2.452794,-0.95638 -0.598,-0.63786 -0.896282,-1.49486 -0.896282,-2.57125 0,-1.09635 0.388023,-1.90491 1.165429,-2.42318 0.777403,-0.53821 1.854334,-0.87694 3.229742,-1.01648 l 2.749812,-0.29876 v -1.34573 c 0,-1.1362 -0.168068,-1.99231 -0.506934,-2.57038 -0.338872,-0.57806 -0.957401,-0.86754 -1.854403,-0.86754 -0.87707,0 -1.534324,0.11959 -1.972861,0.35886 -0.119625,0.41861 -0.17943,1.33542 -0.17943,2.75068 l -1.256881,0.35887 c -0.438532,-1.45514 -0.687558,-2.57167 -0.747339,-3.34908 2.152813,-0.97674 3.708385,-1.46505 4.665187,-1.46505 z m 11.839781,0 0.479932,0.53829 c 0,0.63787 0.08887,1.4051 0.268274,2.3021 l 0.986866,-1.25601 c 0.85715,-1.05647 1.752854,-1.58438 2.689711,-1.58438 0.398671,0 1.107805,0.19006 2.124419,0.56877 -0.279058,1.57476 -0.618667,2.85934 -1.017352,3.85601 l -0.806565,0.0601 c 0,-0.71761 -0.11005,-1.30622 -0.329245,-1.76469 -0.199332,-0.45847 -0.509051,-0.68636 -0.927637,-0.68636 v -8.7e-4 c -0.75747,0 -1.663735,0.74788 -2.720197,2.24288 v 6.63804 c 0,0.25915 0.0396,0.44832 0.11933,0.56791 0.07973,0.0997 0.228439,0.18944 0.447705,0.26914 0.33887,0.1396 0.957393,0.24868 1.854402,0.32838 l 0.448575,0.061 -0.209916,1.01648 c -1.793999,-0.15951 -3.078604,-0.23953 -3.856007,-0.23953 -0.777404,0 -1.824413,0.0801 -3.140029,0.23953 l -0.23953,-0.89802 c 0.777403,-0.11958 1.306185,-0.24894 1.585257,-0.38848 0.299012,-0.15946 0.468826,-0.28877 0.508676,-0.38847 0.05969,-0.0997 0.08972,-0.27915 0.08972,-0.53829 v -8.07262 c 0,-0.59802 -0.169805,-0.92707 -0.508676,-0.98687 -0.338872,-0.0399 -0.777921,-0.0112 -1.316112,0.0889 l -0.328374,0.0601 -0.149816,-0.89715 c 1.395341,-0.61794 2.710713,-0.99628 3.946594,-1.13581 z m 7.146722,0.27001 c 0.877062,0.13958 1.923236,0.20817 3.139158,0.20817 1.215967,0 2.242745,-0.0687 3.079928,-0.20817 l -0.05923,0.89628 c -0.438546,0.0597 -0.777269,0.13012 -1.016481,0.20992 -0.219253,0.0597 -0.368846,0.17768 -0.448576,0.35712 -0.05986,0.1794 -0.01156,0.37999 0.148074,0.59926 l 2.363949,2.98934 2.361336,-2.95973 c 0.13959,-0.19933 0.159791,-0.38936 0.0601,-0.56877 -0.09959,-0.19933 -0.269437,-0.3278 -0.508676,-0.38761 l -1.046967,-0.20991 -0.0601,-0.89715 c 0.737523,0.11963 1.605926,0.17942 2.602609,0.17942 1.016602,0 1.883264,-0.0599 2.600867,-0.17942 l -0.09059,0.89715 c -0.199351,0 -0.348045,0.0193 -0.447705,0.0592 -0.07958,0.0399 -0.150006,0.0707 -0.209916,0.0906 -0.03986,0.02 -0.09888,0.0595 -0.178559,0.11933 -0.07972,0.0398 -0.13958,0.0698 -0.17943,0.0897 -0.01986,0.02 -0.07108,0.079 -0.150687,0.17856 -0.159525,0.13959 -0.298556,0.28029 -0.418089,0.41983 -0.119596,0.11959 -0.199611,0.19963 -0.239531,0.23953 l -3.317717,3.88649 3.886493,4.84375 c 0.61793,0.71759 1.246151,1.09678 1.884018,1.13668 l -0.209917,0.89715 c -0.996655,-0.15952 -2.013764,-0.23953 -3.050313,-0.23953 -1.016595,0 -2.022275,0.0801 -3.018957,0.23953 l -0.209916,-0.89715 c 0.637864,-0.1196 1.07692,-0.21906 1.316112,-0.29876 0.239199,-0.0797 0.39845,-0.20994 0.47819,-0.38935 0.07959,-0.19933 0.03983,-0.42896 -0.119329,-0.6881 l -2.631353,-3.28724 -2.721068,3.28724 c -0.179505,0.25914 -0.23934,0.48877 -0.17943,0.6881 0.05987,0.19933 0.189201,0.32955 0.388475,0.38935 l 1.406698,0.29876 -0.209916,0.89715 c -1.036547,-0.15952 -1.943664,-0.23953 -2.721068,-0.23953 -0.757469,0 -1.61445,0.0801 -2.571252,0.23953 l -0.209916,-0.89715 c 0.657797,-0.0399 1.395979,-0.4596 2.213263,-1.25689 l 3.826393,-4.36468 -3.527633,-4.42478 c -0.318939,-0.39866 -0.608377,-0.65735 -0.867536,-0.77695 -0.259132,-0.13959 -0.597864,-0.23022 -1.016481,-0.27002 z m -17.133842,6.72689 -2.302108,0.41809 c -1.574739,0.25913 -2.361335,0.97708 -2.361335,2.15317 0,0.55814 0.178613,1.03591 0.537419,1.43456 0.358799,0.39868 0.877906,0.5984 1.555642,0.5984 0.677738,0 1.533845,-0.39858 2.570382,-1.19591 z"
     inkscape:export-filename="/Users/max/Projects/private/farxio/farx.png"
     inkscape:export-xdpi="59.85968"
     inkscape:export-ydpi="59.85968" />
</svg>
